<?xml version="1.0" standalone="no"?><!DOCTYPE svg PUBLIC "-//W3C//DTD SVG 1.1//EN" "http://www.w3.org/Graphics/SVG/1.1/DTD/svg11.dtd"><svg t="1553581411459" class="icon" style="" viewBox="0 0 1024 1024" version="1.1" xmlns="http://www.w3.org/2000/svg" p-id="2146" xmlns:xlink="http://www.w3.org/1999/xlink" width="200" height="200"><defs><style type="text/css"></style></defs><path d="M345.139691 783.963065H286.724257V474.702536h58.415434c15.181771 0 27.490098 15.384385 27.490098 34.362622v240.536308c0 18.977213-12.308327 34.361599-27.490098 34.361599z" fill="#00D8A0" p-id="2147"></path><path d="M598.391602 294.072619H321.984319c-18.97619 0-34.362622-15.385409-34.362623-34.362622s15.385409-34.362622 34.362623-34.362623H598.392626c18.97619 0 34.362622 15.385409 34.362622 34.362623s-15.386432 34.362622-34.363646 34.362622z" fill="#444444" p-id="2148"></path><path d="M769.716596 958.708971H254.282381c-56.845683 0-103.086843-46.24116-103.086844-103.086843V409.80241c0-17.642822 6.678096-34.420951 18.808368-47.248094 0.016373-0.008186 0.016373-0.016373 0.033769-0.025582l107.61702-113.539916v-46.249347c0-75.788104 61.660338-137.449465 137.449465-137.449466h191.224206c75.788104 0 137.449465 61.660338 137.449466 137.449466v46.048779l109.697401 113.447818c12.465916 12.902868 19.329231 29.865191 19.329231 47.767933v445.619151c-0.001023 56.844659-46.242184 103.08582-103.087867 103.085819zM219.937155 409.786037c-0.016373 0.008186-0.016373 0.016373-0.016373 0.016373v445.819718c0 18.951631 15.419178 34.362622 34.362622 34.362622h515.434215c18.942421 0 34.362622-15.410991 34.362623-34.362622v-445.61915L684.71669 286.572808a34.287921 34.287921 0 0 1-9.664104-23.883967v-59.94937c0-37.894052-30.821983-68.724221-68.724221-68.724221H415.104159c-37.902238 0-68.724221 30.830169-68.724221 68.724221v59.94937a34.348296 34.348296 0 0 1-9.429766 23.64042L219.937155 409.786037z" fill="#444444" p-id="2149"></path></svg>